<svg xmlns="http://www.w3.org/2000/svg" width="256" height="257.333" version="1.0"
  viewBox="0 0 192 193" fill="#167DB7">
  <path
    d="M23.5 2.4c-2.2.7-5.4 2-7.1 2.9-4.3 2.2-11.2 10-13.7 15.5C.5 25.5.5 25.8.5 97s0 71.5 2.2 76.2c3 6.6 9.6 13.3 16.2 16.5l5.6 2.8H96c71.2 0 71.5 0 76.2-2.2 6.6-3 13.3-9.6 16.5-16.2l2.8-5.6V97c0-71.4 0-71.5-2.2-76.2-3-6.6-10.4-14.1-16.6-16.9l-5.2-2.4-70-.2c-54.5-.1-70.9.1-74 1.1zm66.7 45.1c-.2 3.3-2.5 22.9-5 43.5l-4.7 37.5-9 .3c-4.9.1-9.5-.1-10.1-.5-.8-.6.3-12.8 4.1-43.8 2.9-23.7 5.3-43.1 5.4-43.3 0-.1 4.5-.1 9.9 0l9.7.3-.3 6zm40.4-5.5c1.6 1.6-9.9 91.7-12.4 97.2-2.3 5.2-6.4 9.1-11.6 11.3-4.7 2-18.9 3.1-23.6 1.8-3.5-1-3.5-1-3.3-6.3.2-3 .8-5.7 1.5-6.2.7-.4 3.9-.8 7.1-.8 6.4 0 9.1-1 10.7-4.1.6-1.1 3.6-22 6.5-46.6 3-24.5 6-45.2 6.6-45.9 1.4-1.7 16.9-2 18.5-.4z" />
</svg>
